<svg width="111" height="22" viewBox="0 0 111 22" fill="none" xmlns="http://www.w3.org/2000/svg">
<path d="M6.84 17.24C4.92 17.24 3.432 16.872 2.376 16.136C1.336 15.4 0.816 14.344 0.816 12.968V12.896H3.408V13.088C3.408 13.872 3.664 14.416 4.176 14.72C4.704 15.008 5.592 15.152 6.84 15.152C8.008 15.152 8.8 15.032 9.216 14.792C9.648 14.536 9.864 14.144 9.864 13.616C9.864 13.12 9.696 12.768 9.36 12.56C9.04 12.352 8.448 12.192 7.584 12.08L4.32 11.648C3.184 11.504 2.296 11.184 1.656 10.688C1.016 10.176 0.696 9.416 0.696 8.408C0.696 7.704 0.904 7.088 1.32 6.56C1.736 6.016 2.36 5.592 3.192 5.288C4.024 4.984 5.048 4.832 6.264 4.832C7.48 4.832 8.52 4.992 9.384 5.312C10.264 5.632 10.936 6.112 11.4 6.752C11.88 7.392 12.12 8.184 12.12 9.128V9.2H9.552V9.056C9.552 8.592 9.456 8.2 9.264 7.88C9.072 7.56 8.728 7.32 8.232 7.16C7.752 6.984 7.072 6.896 6.192 6.896C5.088 6.896 4.32 7.024 3.888 7.28C3.456 7.536 3.24 7.944 3.24 8.504C3.24 8.968 3.4 9.304 3.72 9.512C4.04 9.72 4.64 9.888 5.52 10.016L8.28 10.4C9.688 10.576 10.728 10.92 11.4 11.432C12.072 11.944 12.408 12.696 12.408 13.688C12.408 14.424 12.176 15.064 11.712 15.608C11.248 16.136 10.6 16.544 9.768 16.832C8.936 17.104 7.96 17.24 6.84 17.24ZM26.8301 17H24.2621V10.52C24.2621 9.32 23.9821 8.464 23.4221 7.952C22.8621 7.424 21.9581 7.16 20.7101 7.16C19.7661 7.16 19.0141 7.328 18.4541 7.664C17.8941 7.984 17.4861 8.448 17.2301 9.056C16.9901 9.648 16.8701 10.368 16.8701 11.216L16.3661 11.24L16.4861 8.72H17.0141C17.1581 8.048 17.4141 7.416 17.7821 6.824C18.1661 6.232 18.7021 5.752 19.3901 5.384C20.0781 5.016 20.9261 4.832 21.9341 4.832C23.0221 4.832 23.9261 5.056 24.6461 5.504C25.3821 5.936 25.9261 6.536 26.2781 7.304C26.6461 8.056 26.8301 8.92 26.8301 9.896V17ZM16.8701 17H14.2781V0.92H16.8701V17ZM35.2569 17.24C33.9449 17.24 32.7849 16.984 31.7769 16.472C30.7849 15.944 30.0089 15.216 29.4489 14.288C28.9049 13.344 28.6329 12.264 28.6329 11.048C28.6329 9.8 28.9049 8.712 29.4489 7.784C30.0089 6.856 30.7849 6.136 31.7769 5.624C32.7849 5.096 33.9449 4.832 35.2569 4.832C36.6009 4.832 37.7689 5.096 38.7609 5.624C39.7529 6.136 40.5209 6.856 41.0649 7.784C41.6249 8.712 41.9049 9.8 41.9049 11.048C41.9049 12.264 41.6249 13.344 41.0649 14.288C40.5209 15.216 39.7529 15.944 38.7609 16.472C37.7689 16.984 36.6009 17.24 35.2569 17.24ZM35.2569 14.936C36.7129 14.936 37.7609 14.608 38.4009 13.952C39.0409 13.28 39.3609 12.312 39.3609 11.048C39.3609 9.784 39.0409 8.816 38.4009 8.144C37.7609 7.456 36.7129 7.112 35.2569 7.112C33.8169 7.112 32.7769 7.456 32.1369 8.144C31.4969 8.816 31.1769 9.784 31.1769 11.048C31.1769 12.312 31.4969 13.28 32.1369 13.952C32.7769 14.608 33.8169 14.936 35.2569 14.936ZM51.3699 17.24C50.0419 17.24 48.9539 16.912 48.1059 16.256C47.2579 15.6 46.7139 14.728 46.4739 13.64H45.9219V11.24H46.3779C46.3779 12.04 46.5459 12.72 46.8819 13.28C47.2179 13.824 47.6899 14.232 48.2979 14.504C48.9219 14.76 49.6499 14.888 50.4819 14.888C51.3459 14.888 52.0739 14.768 52.6659 14.528C53.2739 14.272 53.7379 13.864 54.0579 13.304C54.3779 12.744 54.5379 11.992 54.5379 11.048C54.5379 10.088 54.3779 9.328 54.0579 8.768C53.7379 8.208 53.2739 7.808 52.6659 7.568C52.0739 7.328 51.3619 7.208 50.5299 7.208C49.2019 7.208 48.1779 7.528 47.4579 8.168C46.7379 8.792 46.3779 9.744 46.3779 11.024H45.9219L45.7539 8.384H46.3779C46.6179 7.28 47.1539 6.416 47.9859 5.792C48.8339 5.152 49.9539 4.832 51.3459 4.832C52.5779 4.832 53.6259 5.096 54.4899 5.624C55.3539 6.136 56.0099 6.856 56.4579 7.784C56.9059 8.712 57.1299 9.8 57.1299 11.048C57.1299 12.264 56.9059 13.344 56.4579 14.288C56.0259 15.216 55.3779 15.944 54.5139 16.472C53.6659 16.984 52.6179 17.24 51.3699 17.24ZM46.3779 21.08H43.7859V5.072H46.1619V8.816L46.3779 9.128V21.08ZM64.6386 17H61.4226L57.8466 5.072H60.5346L62.5266 11.84L63.0786 14.912H63.2706L64.1586 11.6L66.6546 5.072H69.9666L72.4866 11.6L73.3746 14.912H73.5666L74.1186 11.84L76.1106 5.072H78.7506L75.1266 17H71.9106L69.2946 10.136L68.3826 7.208H68.1906L67.2786 10.136L64.6386 17ZM82.6592 17H80.0672V5.072H82.6592V17ZM82.6592 3.68H80.0672V0.92H82.6592V3.68ZM90.6994 17.24C88.7794 17.24 87.2914 16.872 86.2354 16.136C85.1954 15.4 84.6754 14.344 84.6754 12.968V12.896H87.2674V13.088C87.2674 13.872 87.5234 14.416 88.0354 14.72C88.5634 15.008 89.4514 15.152 90.6994 15.152C91.8674 15.152 92.6594 15.032 93.0754 14.792C93.5074 14.536 93.7234 14.144 93.7234 13.616C93.7234 13.12 93.5554 12.768 93.2194 12.56C92.8994 12.352 92.3074 12.192 91.4434 12.08L88.1794 11.648C87.0434 11.504 86.1554 11.184 85.5154 10.688C84.8754 10.176 84.5554 9.416 84.5554 8.408C84.5554 7.704 84.7634 7.088 85.1794 6.56C85.5954 6.016 86.2194 5.592 87.0514 5.288C87.8834 4.984 88.9074 4.832 90.1234 4.832C91.3394 4.832 92.3794 4.992 93.2434 5.312C94.1234 5.632 94.7954 6.112 95.2594 6.752C95.7394 7.392 95.9794 8.184 95.9794 9.128V9.2H93.4114V9.056C93.4114 8.592 93.3154 8.2 93.1234 7.88C92.9314 7.56 92.5874 7.32 92.0914 7.16C91.6114 6.984 90.9314 6.896 90.0514 6.896C88.9474 6.896 88.1794 7.024 87.7474 7.28C87.3154 7.536 87.0994 7.944 87.0994 8.504C87.0994 8.968 87.2594 9.304 87.5794 9.512C87.8994 9.72 88.4994 9.888 89.3794 10.016L92.1394 10.4C93.5474 10.576 94.5874 10.92 95.2594 11.432C95.9314 11.944 96.2674 12.696 96.2674 13.688C96.2674 14.424 96.0354 15.064 95.5714 15.608C95.1074 16.136 94.4594 16.544 93.6274 16.832C92.7954 17.104 91.8194 17.24 90.6994 17.24ZM104.138 17.24C102.842 17.24 101.706 17 100.73 16.52C99.7535 16.04 98.9935 15.336 98.4495 14.408C97.9215 13.48 97.6575 12.36 97.6575 11.048C97.6575 9.8 97.9215 8.712 98.4495 7.784C98.9935 6.856 99.7455 6.136 100.706 5.624C101.666 5.096 102.794 4.832 104.09 4.832C105.322 4.832 106.402 5.056 107.33 5.504C108.274 5.936 109.002 6.576 109.514 7.424C110.042 8.256 110.306 9.28 110.306 10.496C110.306 10.704 110.298 10.904 110.282 11.096C110.266 11.272 110.242 11.448 110.21 11.624H99.3135V10.184H108.506L107.834 11.072C107.85 10.912 107.858 10.76 107.858 10.616C107.858 10.456 107.858 10.296 107.858 10.136C107.858 9.032 107.538 8.216 106.898 7.688C106.274 7.144 105.322 6.872 104.042 6.872C102.618 6.872 101.602 7.2 100.994 7.856C100.386 8.512 100.082 9.456 100.082 10.688V11.312C100.082 12.56 100.386 13.512 100.994 14.168C101.602 14.824 102.626 15.152 104.066 15.152C105.314 15.152 106.21 14.96 106.754 14.576C107.314 14.176 107.594 13.624 107.594 12.92V12.728H110.186V12.944C110.186 13.792 109.922 14.544 109.394 15.2C108.882 15.84 108.17 16.344 107.258 16.712C106.362 17.064 105.322 17.24 104.138 17.24Z" fill="#5C6AC4"/>
</svg>
